<svg preserveAspectRatio="none" width="100%" height="100%" overflow="visible" style="display: block;" viewBox="0 0 54 51.5" fill="none" xmlns="http://www.w3.org/2000/svg">
<g id="Icon">
<path d="M37 17C40.9782 17 44.7936 18.5804 47.6066 21.3934C50.4196 24.2064 52 28.0218 52 32V49.5H42V32C42 30.6739 41.4732 29.4021 40.5355 28.4645C39.5979 27.5268 38.3261 27 37 27C35.6739 27 34.4021 27.5268 33.4645 28.4645C32.5268 29.4021 32 30.6739 32 32V49.5H22V32C22 28.0218 23.5804 24.2064 26.3934 21.3934C29.2064 18.5804 33.0218 17 37 17Z" stroke="var(--stroke-0, white)" stroke-width="4" stroke-linecap="round" stroke-linejoin="round"/>
<path d="M12 19.5H2V49.5H12V19.5Z" stroke="var(--stroke-0, white)" stroke-width="4" stroke-linecap="round" stroke-linejoin="round"/>
<path d="M7 12C9.76142 12 12 9.76142 12 7C12 4.23858 9.76142 2 7 2C4.23858 2 2 4.23858 2 7C2 9.76142 4.23858 12 7 12Z" stroke="var(--stroke-0, white)" stroke-width="4" stroke-linecap="round" stroke-linejoin="round"/>
</g>
</svg>
