<svg preserveAspectRatio="none" width="100%" height="100%" overflow="visible" style="display: block;" viewBox="0 0 54 54" fill="none" xmlns="http://www.w3.org/2000/svg">
<path id="Icon" d="M40.75 13.25H40.775M14.5 2H39.5C46.4036 2 52 7.59644 52 14.5V39.5C52 46.4036 46.4036 52 39.5 52H14.5C7.59644 52 2 46.4036 2 39.5V14.5C2 7.59644 7.59644 2 14.5 2ZM37 25.425C37.3085 27.5056 36.9531 29.6305 35.9844 31.4975C35.0156 33.3645 33.4829 34.8785 31.6041 35.8242C29.7253 36.7698 27.5961 37.099 25.5195 36.7648C23.4428 36.4307 21.5244 35.4502 20.0371 33.9629C18.5498 32.4756 17.5693 30.5572 17.2352 28.4805C16.901 26.4039 17.2302 24.2747 18.1758 22.3959C19.1215 20.5171 20.6355 18.9844 22.5025 18.0156C24.3695 17.0469 26.4944 16.6915 28.575 17C30.6973 17.3147 32.6621 18.3037 34.1792 19.8208C35.6963 21.3379 36.6853 23.3027 37 25.425Z" stroke="var(--stroke-0, white)" stroke-width="4" stroke-linecap="round" stroke-linejoin="round"/>
</svg>
